<svg width="60" height="61" viewBox="0 0 60 61" fill="none" xmlns="http://www.w3.org/2000/svg">
<mask id="mask0" mask-type="alpha" maskUnits="userSpaceOnUse" x="0" y="0" width="60" height="61">
<path fill-rule="evenodd" clip-rule="evenodd" d="M30 57.1681C44.9117 57.1681 57 45.0798 57 30.1681C57 15.2564 44.9117 3.16812 30 3.16812C15.0883 3.16812 3 15.2564 3 30.1681C3 45.0798 15.0883 57.1681 30 57.1681ZM30 60.1681C46.5685 60.1681 60 46.7367 60 30.1681C60 13.5996 46.5685 0.168121 30 0.168121C13.4315 0.168121 0 13.5996 0 30.1681C0 46.7367 13.4315 60.1681 30 60.1681Z" fill="#EA918D"/>
<path fill-rule="evenodd" clip-rule="evenodd" d="M41.0299 22.8995C39.3865 13.391 33.7361 6.10391 29.0591 2.33625L30.9411 0C36.0741 4.135 42.1959 12.0311 43.986 22.3885C45.7902 32.8273 43.1568 45.5498 31.1239 59.1616L28.8762 57.1746C40.3876 44.1528 42.6592 32.3267 41.0299 22.8995Z" fill="#EA918D"/>
<path fill-rule="evenodd" clip-rule="evenodd" d="M17.0388 36.3989C18.9237 45.8503 25.4192 53.1407 30.8586 56.9382L29.1413 59.398C23.2613 55.2929 16.1737 47.4001 14.0967 36.9856C11.9967 26.455 15.0851 13.6898 28.9498 0.0970192L31.05 2.23924C17.7483 15.2801 15.1771 27.0636 17.0388 36.3989Z" fill="#EA918D"/>
<path fill-rule="evenodd" clip-rule="evenodd" d="M34.6507 17.7783C41.4093 16.7104 46.5572 13.0946 49.188 10.1486L51.4256 12.1469C48.3915 15.5444 42.6417 19.5529 35.1189 20.7415C27.5329 21.9402 18.2847 20.2484 8.38302 12.4472L10.2396 10.0908C19.5383 17.4169 27.9553 18.8362 34.6507 17.7783Z" fill="#EA918D"/>
<path fill-rule="evenodd" clip-rule="evenodd" d="M24.6931 42.0093C17.9286 43.0393 12.7606 46.6262 10.1132 49.5573L7.88687 47.5465C10.94 44.1661 16.7121 40.1899 24.2415 39.0435C31.8341 37.8873 41.0727 39.6309 50.9305 47.4874L49.0607 49.8335C39.8032 42.4554 31.3943 40.9889 24.6931 42.0093Z" fill="#EA918D"/>
<path fill-rule="evenodd" clip-rule="evenodd" d="M45.3198 31.6765C36.979 31.6473 23.6112 31.6889 3.0146 31.8889L2.98547 28.8891C23.5888 28.689 36.9711 28.6473 45.3303 28.6765C49.5093 28.6911 52.4373 28.7234 54.3865 28.7627C55.3605 28.7824 56.096 28.8038 56.624 28.826C57.1103 28.8465 57.512 28.8703 57.7466 28.9094L57.2534 31.8686C57.2576 31.8693 57.257 31.8692 57.2508 31.8685C57.2347 31.8668 57.1813 31.8611 57.0719 31.8535C56.9356 31.8441 56.7469 31.8339 56.498 31.8234C56.0009 31.8025 55.2896 31.7815 54.326 31.7621C52.4003 31.7233 49.4908 31.691 45.3198 31.6765Z" fill="#EA918D"/>
</mask>
<g mask="url(#mask0)">
<rect x="-5" y="-3" width="69" height="67" fill="url(#paint0_linear)"/>
</g>
<defs>
<linearGradient id="paint0_linear" x1="29.5" y1="-3" x2="29.5" y2="64" gradientUnits="userSpaceOnUse">
<stop stop-color="#EA918D" stop-opacity="0.2"/>
<stop offset="1" stop-color="#EA918D"/>
</linearGradient>
</defs>
</svg>
