<svg width="142" height="63" viewBox="0 0 142 63" fill="none" xmlns="http://www.w3.org/2000/svg">
<path d="M18.1641 49.8535C17.9004 52.1094 17.0654 53.8525 15.6592 55.083C14.2627 56.3037 12.4023 56.9141 10.0781 56.9141C7.55859 56.9141 5.53711 56.0107 4.01367 54.2041C2.5 52.3975 1.74316 49.9805 1.74316 46.9531V44.9023C1.74316 42.9199 2.09473 41.1768 2.79785 39.6729C3.51074 38.1689 4.5166 37.0166 5.81543 36.2158C7.11426 35.4053 8.61816 35 10.3271 35C12.5928 35 14.4092 35.6348 15.7764 36.9043C17.1436 38.1641 17.9395 39.9121 18.1641 42.1484H15.3369C15.0928 40.4492 14.5605 39.2188 13.7402 38.457C12.9297 37.6953 11.792 37.3145 10.3271 37.3145C8.53027 37.3145 7.11914 37.9785 6.09375 39.3066C5.07812 40.6348 4.57031 42.5244 4.57031 44.9756V47.041C4.57031 49.3555 5.05371 51.1963 6.02051 52.5635C6.9873 53.9307 8.33984 54.6143 10.0781 54.6143C11.6406 54.6143 12.8369 54.2627 13.667 53.5596C14.5068 52.8467 15.0635 51.6113 15.3369 49.8535H18.1641Z" fill="#EA918D"/>
<path d="M24.3018 42.6904C25.5029 41.2158 27.0654 40.4785 28.9893 40.4785C32.3389 40.4785 34.0283 42.3682 34.0576 46.1475V56.6211H31.3477V46.1328C31.3379 44.9902 31.0742 44.1455 30.5566 43.5986C30.0488 43.0518 29.2529 42.7783 28.1689 42.7783C27.29 42.7783 26.5186 43.0127 25.8545 43.4814C25.1904 43.9502 24.6729 44.5654 24.3018 45.3271V56.6211H21.5918V34.1211H24.3018V42.6904Z" fill="#EA918D"/>
<path d="M47.9004 56.6211C47.7441 56.3086 47.6172 55.752 47.5195 54.9512C46.2598 56.2598 44.7559 56.9141 43.0078 56.9141C41.4453 56.9141 40.1611 56.4746 39.1553 55.5957C38.1592 54.707 37.6611 53.584 37.6611 52.2266C37.6611 50.5762 38.2861 49.2969 39.5361 48.3887C40.7959 47.4707 42.5635 47.0117 44.8389 47.0117H47.4756V45.7666C47.4756 44.8193 47.1924 44.0674 46.626 43.5107C46.0596 42.9443 45.2246 42.6611 44.1211 42.6611C43.1543 42.6611 42.3438 42.9053 41.6895 43.3936C41.0352 43.8818 40.708 44.4727 40.708 45.166H37.9834C37.9834 44.375 38.2617 43.6133 38.8184 42.8809C39.3848 42.1387 40.1465 41.5527 41.1035 41.123C42.0703 40.6934 43.1299 40.4785 44.2822 40.4785C46.1084 40.4785 47.5391 40.9375 48.5742 41.8555C49.6094 42.7637 50.1465 44.0186 50.1855 45.6201V52.915C50.1855 54.3701 50.3711 55.5273 50.7422 56.3867V56.6211H47.9004ZM43.4033 54.5557C44.2529 54.5557 45.0586 54.3359 45.8203 53.8965C46.582 53.457 47.1338 52.8857 47.4756 52.1826V48.9307H45.3516C42.0312 48.9307 40.3711 49.9023 40.3711 51.8457C40.3711 52.6953 40.6543 53.3594 41.2207 53.8379C41.7871 54.3164 42.5146 54.5557 43.4033 54.5557Z" fill="#EA918D"/>
<path d="M57.3779 56.6211H54.668V34.1211H57.3779V56.6211Z" fill="#EA918D"/>
<path d="M64.6729 56.6211H61.9629V34.1211H64.6729V56.6211Z" fill="#EA918D"/>
<path d="M75.6006 56.9141C73.4521 56.9141 71.7041 56.2109 70.3564 54.8047C69.0088 53.3887 68.335 51.499 68.335 49.1357V48.6377C68.335 47.0654 68.6328 45.6641 69.2285 44.4336C69.834 43.1934 70.6738 42.2266 71.748 41.5332C72.832 40.8301 74.0039 40.4785 75.2637 40.4785C77.3242 40.4785 78.9258 41.1572 80.0684 42.5146C81.2109 43.8721 81.7822 45.8154 81.7822 48.3447V49.4727H71.0449C71.084 51.0352 71.5381 52.2998 72.4072 53.2666C73.2861 54.2236 74.3994 54.7021 75.7471 54.7021C76.7041 54.7021 77.5146 54.5068 78.1787 54.1162C78.8428 53.7256 79.4238 53.208 79.9219 52.5635L81.5771 53.8525C80.249 55.8936 78.2568 56.9141 75.6006 56.9141ZM75.2637 42.7051C74.1699 42.7051 73.252 43.1055 72.5098 43.9062C71.7676 44.6973 71.3086 45.8105 71.1328 47.2461H79.0723V47.041C78.9941 45.6641 78.623 44.5996 77.959 43.8477C77.2949 43.0859 76.3965 42.7051 75.2637 42.7051Z" fill="#EA918D"/>
<path d="M87.4951 40.7715L87.583 42.7637C88.7939 41.2402 90.376 40.4785 92.3291 40.4785C95.6787 40.4785 97.3682 42.3682 97.3975 46.1475V56.6211H94.6875V46.1328C94.6777 44.9902 94.4141 44.1455 93.8965 43.5986C93.3887 43.0518 92.5928 42.7783 91.5088 42.7783C90.6299 42.7783 89.8584 43.0127 89.1943 43.4814C88.5303 43.9502 88.0127 44.5654 87.6416 45.3271V56.6211H84.9316V40.7715H87.4951Z" fill="#EA918D"/>
<path d="M100.84 48.5645C100.84 46.0938 101.411 44.1309 102.554 42.6758C103.696 41.2109 105.21 40.4785 107.095 40.4785C109.028 40.4785 110.537 41.1621 111.621 42.5293L111.753 40.7715H114.229V56.2402C114.229 58.291 113.618 59.9072 112.397 61.0889C111.187 62.2705 109.556 62.8613 107.505 62.8613C106.362 62.8613 105.244 62.6172 104.15 62.1289C103.057 61.6406 102.222 60.9717 101.646 60.1221L103.052 58.4961C104.214 59.9316 105.635 60.6494 107.314 60.6494C108.633 60.6494 109.658 60.2783 110.391 59.5361C111.133 58.7939 111.504 57.749 111.504 56.4014V55.0391C110.42 56.2891 108.94 56.9141 107.065 56.9141C105.21 56.9141 103.706 56.167 102.554 54.6729C101.411 53.1787 100.84 51.1426 100.84 48.5645ZM103.564 48.8721C103.564 50.6592 103.931 52.0654 104.663 53.0908C105.396 54.1064 106.421 54.6143 107.739 54.6143C109.448 54.6143 110.703 53.8379 111.504 52.2852V45.0488C110.674 43.5352 109.429 42.7783 107.769 42.7783C106.45 42.7783 105.42 43.291 104.678 44.3164C103.936 45.3418 103.564 46.8604 103.564 48.8721Z" fill="#EA918D"/>
<path d="M124.907 56.9141C122.759 56.9141 121.011 56.2109 119.663 54.8047C118.315 53.3887 117.642 51.499 117.642 49.1357V48.6377C117.642 47.0654 117.939 45.6641 118.535 44.4336C119.141 43.1934 119.98 42.2266 121.055 41.5332C122.139 40.8301 123.311 40.4785 124.57 40.4785C126.631 40.4785 128.232 41.1572 129.375 42.5146C130.518 43.8721 131.089 45.8154 131.089 48.3447V49.4727H120.352C120.391 51.0352 120.845 52.2998 121.714 53.2666C122.593 54.2236 123.706 54.7021 125.054 54.7021C126.011 54.7021 126.821 54.5068 127.485 54.1162C128.149 53.7256 128.73 53.208 129.229 52.5635L130.884 53.8525C129.556 55.8936 127.563 56.9141 124.907 56.9141ZM124.57 42.7051C123.477 42.7051 122.559 43.1055 121.816 43.9062C121.074 44.6973 120.615 45.8105 120.439 47.2461H128.379V47.041C128.301 45.6641 127.93 44.5996 127.266 43.8477C126.602 43.0859 125.703 42.7051 124.57 42.7051Z" fill="#EA918D"/>
<path d="M141.899 43.2031C141.489 43.1348 141.045 43.1006 140.566 43.1006C138.789 43.1006 137.583 43.8574 136.948 45.3711V56.6211H134.238V40.7715H136.875L136.919 42.6025C137.808 41.1865 139.067 40.4785 140.698 40.4785C141.226 40.4785 141.626 40.5469 141.899 40.6836V43.2031Z" fill="#EA918D"/>
<path d="M17.2119 2.60742H10.3564V21.6211H7.55859V2.60742H0.717773V0.292969H17.2119V2.60742Z" fill="white"/>
<path d="M26.499 8.20312C26.0889 8.13477 25.6445 8.10059 25.166 8.10059C23.3887 8.10059 22.1826 8.85742 21.5479 10.3711V21.6211H18.8379V5.77148H21.4746L21.5186 7.60254C22.4072 6.18652 23.667 5.47852 25.2979 5.47852C25.8252 5.47852 26.2256 5.54688 26.499 5.68359V8.20312Z" fill="white"/>
<path d="M31.9482 21.6211H29.2383V5.77148H31.9482V21.6211ZM29.0186 1.56738C29.0186 1.12793 29.1504 0.756836 29.4141 0.454102C29.6875 0.151367 30.0879 0 30.6152 0C31.1426 0 31.543 0.151367 31.8164 0.454102C32.0898 0.756836 32.2266 1.12793 32.2266 1.56738C32.2266 2.00684 32.0898 2.37305 31.8164 2.66602C31.543 2.95898 31.1426 3.10547 30.6152 3.10547C30.0879 3.10547 29.6875 2.95898 29.4141 2.66602C29.1504 2.37305 29.0186 2.00684 29.0186 1.56738Z" fill="white"/>
<path d="M49.6875 13.8721C49.6875 16.2842 49.1357 18.2275 48.0322 19.7021C46.9287 21.1768 45.4346 21.9141 43.5498 21.9141C41.626 21.9141 40.1123 21.3037 39.0088 20.083V27.7148H36.2988V5.77148H38.7744L38.9062 7.5293C40.0098 6.16211 41.543 5.47852 43.5059 5.47852C45.4102 5.47852 46.9141 6.19629 48.0176 7.63184C49.1309 9.06738 49.6875 11.0645 49.6875 13.623V13.8721ZM46.9775 13.5645C46.9775 11.7773 46.5967 10.3662 45.835 9.33105C45.0732 8.2959 44.0283 7.77832 42.7002 7.77832C41.0596 7.77832 39.8291 8.50586 39.0088 9.96094V17.5342C39.8193 18.9795 41.0596 19.7021 42.7295 19.7021C44.0283 19.7021 45.0586 19.1895 45.8203 18.1641C46.5918 17.1289 46.9775 15.5957 46.9775 13.5645Z" fill="white"/>
</svg>
